<?xml version="1.0" encoding="utf-8"?>
<!-- Generator: Adobe Illustrator 21.0.2, SVG Export Plug-In . SVG Version: 6.00 Build 0)  -->
<svg version="1.0" xmlns="http://www.w3.org/2000/svg" xmlns:xlink="http://www.w3.org/1999/xlink" x="0px" y="0px"
	 viewBox="0 0 1715.9 965.9" style="enable-background:new 0 0 1715.9 965.9;" xml:space="preserve">
<style type="text/css">
	.st0{display:none;}
	.st1{display:inline;fill:#473A49;stroke:#473A49;stroke-linejoin:round;stroke-miterlimit:10;}
	.st2{fill:#776553;stroke:#776553;stroke-miterlimit:10;}
	.st3{stroke:#000000;stroke-miterlimit:10;}
	.st4{fill:none;stroke:#000000;stroke-miterlimit:10;}
	.st5{fill:none;stroke:#000000;stroke-width:4;stroke-miterlimit:10;}
	.st6{fill:#FFFFFF;}
	.st7{fill:#473A49;stroke:#473A49;stroke-miterlimit:10;}
	.st8{fill:#BFA487;}
	.st9{fill:none;stroke:#000000;stroke-width:2;stroke-miterlimit:10;}
	.st10{fill:#776553;}
	.st11{fill:#5B5C5C;}
	.st12{fill:none;stroke:#BFA487;stroke-width:2;stroke-miterlimit:10;}
	.st13{fill:#473A49;}
	.st14{fill:#FFFFFF;stroke:#000000;stroke-linejoin:round;stroke-miterlimit:10;}
	.st15{fill:none;stroke:#473A49;stroke-miterlimit:10;}
	.st16{fill:#FFFFFF;stroke:#FFFFFF;stroke-miterlimit:10;}
	.st17{fill:#D1CDD4;}
	.st18{fill:none;stroke:#D1CDD4;stroke-width:0.25;stroke-miterlimit:10;}
	.st19{fill:#FFFFFF;stroke:#FFFFFF;stroke-width:0.25;stroke-miterlimit:10;}
	.st20{fill:#D1CDD4;stroke:#D1CDD4;stroke-width:0.25;stroke-miterlimit:10;}
	.st21{fill:none;stroke:#473A49;stroke-width:0.25;stroke-miterlimit:10;}
	.st22{fill:#473A49;stroke:#473A49;stroke-width:0.25;stroke-miterlimit:10;}
	.st23{fill:#FFFFFF;stroke:#CBC0B5;stroke-miterlimit:10;}
	.st24{fill:#CCC1B6;}
	.st25{fill:none;}
	.st26{fill:#CBC0B5;}
	.st27{fill:#9C95A0;stroke:#9C95A0;stroke-miterlimit:10;}
	.st28{fill:#9C95A0;stroke:#9D95A0;stroke-miterlimit:10;}
	.st29{fill:#55A59B;}
	.st30{fill:#81CCC3;}
	.st31{fill:#66B9B2;}
	.st32{fill:#419389;stroke:#66B9B2;stroke-miterlimit:10;}
	.st33{fill:none;stroke:#7FCCC3;stroke-miterlimit:10;}
	.st34{fill:#473A49;stroke:#473A49;stroke-linejoin:round;stroke-miterlimit:10;}
	.st35{stroke:#473A49;stroke-miterlimit:10;}
	.st36{fill:#65B9B2;}
	.st37{fill:#65B9B2;stroke:#65B9B2;stroke-width:0.25;stroke-miterlimit:10;}
	.st38{fill:none;stroke:#473A49;stroke-width:2;stroke-linejoin:round;stroke-miterlimit:10;}
	.st39{fill:none;stroke:#BFA487;stroke-width:3;stroke-miterlimit:10;}
	.st40{fill:none;stroke:#473A49;stroke-width:3;stroke-linejoin:round;stroke-miterlimit:10;}
	.st41{fill:#FFFFFF;stroke:#685C6B;stroke-miterlimit:10;}
	.st42{fill:none;stroke:#DB76AF;stroke-miterlimit:10;}
	.st43{fill:none;stroke:#BFA487;stroke-width:4;stroke-miterlimit:10;}
	.st44{display:none;fill:none;stroke:#473A49;stroke-width:2;stroke-linejoin:round;stroke-miterlimit:10;}
	.st45{fill:#939598;}
	.st46{fill:none;stroke:#000000;stroke-width:0.5;stroke-miterlimit:10;}
	.st47{fill:#685C6B;}
	.st48{fill:none;stroke:#FAA83A;stroke-miterlimit:10;}
	.st49{fill:none;stroke:#89C541;stroke-miterlimit:10;}
	.st50{fill:none;stroke:#E8B7CF;stroke-miterlimit:10;}
	.st51{fill:none;stroke:#E9E31E;stroke-miterlimit:10;}
	.st52{fill:none;stroke:#A4D8CD;stroke-miterlimit:10;}
	.st53{fill:none;stroke:#528FCC;stroke-miterlimit:10;}
	.st54{fill:none;stroke:#71C9E8;stroke-miterlimit:10;}
	.st55{opacity:0.1;}
	.st56{opacity:0.2;}
	.st57{opacity:0.3;}
	.st58{opacity:0.4;}
	.st59{opacity:0.5;}
	.st60{fill:#71A040;}
	.st61{fill:#5B8A3D;}
	.st62{fill:#4B7134;}
	.st63{fill:none;stroke:#000000;stroke-width:0.5;stroke-miterlimit:10;stroke-dasharray:4,4;}
	.st64{fill:#2B222D;stroke:#473A49;stroke-linejoin:round;stroke-miterlimit:10;}
</style>
<g id="Layer_5" class="st0">
</g>
<g id="Layer_3">
	<g id="Layer_7">
	</g>
	<g>
		<path class="st10" d="M665.8,286.4c0,0.7-0.1,1.1-0.4,1.1c-4.1,0-7.3-0.1-9.5-0.2l-13.1-0.2l-12.9,0.2c-2.1,0.1-5,0.2-8.6,0.2
			c-0.4,0-0.6-0.4-0.6-1.1c0-0.7,0.2-1.1,0.6-1.1c4.1,0,7.2-0.3,9.2-1c2-0.7,3.3-1.9,4-3.6c0.7-1.7,0.9-4.5,0.7-8.2l-3.6-82.3
			l-41.3,96.1c-0.3,0.5-0.7,0.7-1.5,0.7s-1.2-0.2-1.5-0.7l-46.6-95.4l-1.5,75.2c-0.1,6.6,1.1,11.5,3.6,14.6
			c2.5,3.1,6.6,4.7,12.3,4.7c0.2,0,0.4,0.4,0.4,1.1c0,0.7-0.1,1.1-0.4,1.1c-3.5,0-6.2-0.1-8-0.2l-10.3-0.2l-10.3,0.2
			c-1.9,0.1-4.4,0.2-7.7,0.2c-0.3,0-0.4-0.4-0.4-1.1c0-0.7,0.1-1.1,0.4-1.1c10.3,0,15.6-6.4,15.7-19.3l1.7-83.8
			c-4-6.2-9.3-9.3-16.1-9.3c-0.3,0-0.4-0.4-0.4-1.1s0.1-1.1,0.4-1.1l7.5,0.2c1.5,0.1,3.4,0.2,5.8,0.2c2.7,0,5-0.1,6.7-0.2
			c1.7-0.1,3.1-0.2,4.1-0.2c1.6,0,2.9,0.6,3.9,1.8c1,1.2,2.6,3.8,4.7,7.9l41.5,84.1l38.9-89.2c1.5-3.1,3.4-4.7,5.8-4.7
			c0.7,0,1.7,0.1,3,0.2c1.2,0.1,2.9,0.2,4.9,0.2l9.5-0.2c1.5-0.1,3.7-0.2,6.5-0.2c0.4,0,0.6,0.4,0.6,1.1s-0.2,1.1-0.6,1.1
			c-6.1,0-10.5,1-13.2,3c-2.7,2-4,5.5-3.8,10.5l4.1,86c0.3,3.9,0.7,6.7,1.5,8.4c0.7,1.7,2.1,2.9,4.1,3.6c2,0.6,5.2,0.9,9.7,0.9
			C665.6,285.3,665.8,285.7,665.8,286.4z"/>
		<path class="st10" d="M819.4,286.4c0,0.7-0.2,1.1-0.6,1.1c-4.1,0-7.4-0.1-9.7-0.2l-13.5-0.2l-14.8,0.2c-2.1,0.1-5,0.2-8.8,0.2
			c-0.4,0-0.6-0.4-0.6-1.1c0-0.7,0.2-1.1,0.6-1.1c4.9,0,8.4-0.3,10.6-0.9c2.2-0.6,3.6-1.8,4.4-3.6c0.7-1.7,1.1-4.5,1.1-8.4v-75
			l-65.8,70.3v4.7c0,3.9,0.4,6.7,1.1,8.4c0.7,1.7,2.2,2.9,4.4,3.6c2.2,0.6,5.7,0.9,10.6,0.9c0.2,0,0.4,0.4,0.4,1.1
			c0,0.7-0.1,1.1-0.4,1.1c-4.1,0-7.3-0.1-9.5-0.2l-14.4-0.2l-13.3,0.2c-2.4,0.1-5.5,0.2-9.5,0.2c-0.4,0-0.6-0.4-0.6-1.1
			c0-0.7,0.2-1.1,0.6-1.1c4.6,0,8-0.3,10.1-0.9c2.1-0.6,3.6-1.8,4.4-3.6c0.8-1.8,1.2-4.6,1.2-8.3v-86.6c0-3.7-0.4-6.5-1.1-8.2
			c-0.7-1.7-2.2-3-4.3-3.6c-2.1-0.7-5.5-1-10.1-1c-0.4,0-0.6-0.4-0.6-1.1s0.2-1.1,0.6-1.1l9.5,0.2c5.2,0.3,9.6,0.4,13.1,0.4
			c3.9,0,8.7-0.1,14.4-0.4l9.5-0.2c0.2,0,0.4,0.4,0.4,1.1s-0.1,1.1-0.4,1.1c-4.6,0-8,0.4-10.3,1.1c-2.2,0.7-3.8,2-4.6,3.8
			c-0.8,1.8-1.2,4.6-1.2,8.3V261l65.8-70.3v-4.5c0-3.7-0.4-6.5-1.1-8.3c-0.7-1.8-2.2-3.1-4.5-3.8c-2.2-0.7-5.7-1.1-10.5-1.1
			c-0.4,0-0.6-0.4-0.6-1.1s0.2-1.1,0.6-1.1l8.8,0.2c5.7,0.3,10.7,0.4,14.8,0.4c3.5,0,8-0.1,13.5-0.4l9.7-0.2c0.4,0,0.6,0.4,0.6,1.1
			s-0.2,1.1-0.6,1.1c-4.6,0-8,0.3-10.2,1c-2.2,0.7-3.7,1.9-4.5,3.6c-0.8,1.7-1.2,4.5-1.2,8.2v86.6c0,3.7,0.4,6.5,1.2,8.3
			c0.8,1.8,2.3,3,4.5,3.6c2.2,0.6,5.6,0.9,10.2,0.9C819.2,285.3,819.4,285.7,819.4,286.4z"/>
		<path class="st10" d="M873.5,280.3c1,1.8,2.9,3.1,5.8,3.8c2.9,0.7,7.4,1.1,13.6,1.1c0.2,0,0.4,0.4,0.4,1.1c0,0.7-0.1,1.1-0.4,1.1
			c-5.2,0-9.3-0.1-12.2-0.2l-16.1-0.2l-13.1,0.2c-2.4,0.1-5.5,0.2-9.5,0.2c-0.4,0-0.6-0.4-0.6-1.1c0-0.7,0.2-1.1,0.6-1.1
			c4.5,0,7.8-0.3,9.8-0.9c2.1-0.6,3.5-1.8,4.2-3.6c0.7-1.8,1.1-4.6,1.1-8.3v-86.6c0-3.7-0.4-6.5-1.1-8.2c-0.7-1.7-2.2-3-4.2-3.6
			c-2.1-0.7-5.3-1-9.8-1c-0.4,0-0.6-0.4-0.6-1.1s0.2-1.1,0.6-1.1l9.3,0.2c5.5,0.3,9.8,0.4,13.1,0.4c2.9,0,6.2-0.2,10.1-0.6
			c1.6-0.1,4.1-0.2,7.3-0.4c3.2-0.1,6-0.2,8.4-0.2c11.7,0,21.1,2.6,28.2,7.7c7.1,5.1,10.7,13,10.7,23.6c0,8.1-2,15-6.1,20.6
			c-4.1,5.6-9.2,9.8-15.5,12.5c-6.3,2.7-12.8,4.1-19.5,4.1c-3.6,0-6.6-0.3-9-0.9c-0.4,0-0.6-0.3-0.6-0.9c0-0.4,0.1-0.7,0.3-1.1
			c0.2-0.4,0.4-0.5,0.7-0.4c2,0.5,4.2,0.7,6.7,0.7c7.4,0,13.6-2.7,18.7-8c5.1-5.4,7.7-13.1,7.7-23.2c0-9.8-2.5-17.5-7.5-23.1
			c-5-5.5-11.6-8.3-19.8-8.3c-3.9,0-6.7,0.3-8.4,0.8c-1.7,0.6-3,1.7-3.7,3.6c-0.7,1.8-1.1,4.6-1.1,8.5v85.4
			C872,275.6,872.5,278.5,873.5,280.3z"/>
		<path class="st10" d="M552.2,338.4c3.2,2.1,5.6,4.7,7,7.8c1.4,3.2,2.1,6.5,2.1,9.8c0,4.5-1.1,8.5-3.2,11.9c-2.1,3.4-5,6-8.5,7.8
			c-3.6,1.8-7.4,2.8-11.6,2.8c-6.2,0-11.2-2.2-14.9-6.7c-3.7-4.5-5.6-11.8-5.6-22c0-11,2.3-19.4,6.9-25.3
			c4.6-5.9,10.5-10.3,17.6-13.3l3.2-1.3c3.9-1.6,6.9-3.1,9.1-4.6c2.2-1.5,3.9-3.7,5.2-6.7c0.1-0.2,0.3-0.3,0.7-0.2
			c0.4,0.1,0.6,0.2,0.5,0.4c-0.8,4.5-2,7.9-3.6,10.3c-1.6,2.4-3.4,4.1-5.3,5.2c-1.9,1.1-5.3,2.6-10.1,4.5c-4.8,2-8.8,4.3-11.8,6.8
			c-3.1,2.5-5.5,5.8-7.3,9.7c-1.8,4-2.8,9-3.1,15.1c2.5-6.3,5.6-10.5,9.5-12.4c3.9-1.9,7.4-2.9,10.7-2.9
			C544.7,335.3,549,336.3,552.2,338.4z M549.8,372.2c2-2.8,3-7.2,3-13c0-4.4-0.6-8.3-1.9-11.6c-1.3-3.3-3-5.9-5.2-7.7
			c-2.2-1.8-4.7-2.7-7.5-2.7c-3.7,0-6.6,1.6-8.6,4.9c-2,3.3-3,7.2-3,11.6c0,6.7,1.3,12.2,3.9,16.4c2.6,4.2,6.3,6.3,10.9,6.3
			C545,376.5,547.8,375.1,549.8,372.2z"/>
		<path class="st10" d="M618.4,376.5c0,0.4-0.1,0.6-0.3,0.6c-1.9,0-3.3,0-4.3-0.1l-5.7-0.1l-6,0.1c-1.1,0.1-2.6,0.1-4.4,0.1
			c-0.2,0-0.3-0.2-0.3-0.6c0-0.4,0.1-0.6,0.3-0.6c1.9,0,3.4-0.2,4.3-0.5c0.9-0.4,1.5-1.1,1.8-2.1c0.3-1,0.5-2.6,0.5-4.8V347
			l-21.7,21.6c0,2.1,0.2,3.6,0.5,4.7c0.3,1,0.9,1.7,1.8,2.1c0.9,0.4,2.3,0.5,4.2,0.5c0.2,0,0.3,0.2,0.3,0.6c0,0.4-0.1,0.6-0.3,0.6
			c-1.9,0-3.3,0-4.3-0.1l-5.7-0.1l-5.8,0.1c-1.1,0.1-2.6,0.1-4.5,0.1c-0.2,0-0.3-0.2-0.3-0.6c0-0.4,0.1-0.6,0.3-0.6
			c1.9,0,3.4-0.2,4.3-0.5c0.9-0.4,1.5-1.1,1.8-2.1c0.3-1,0.5-2.6,0.5-4.8v-24.2c0-2.2-0.2-3.8-0.5-4.8c-0.3-1-0.9-1.7-1.8-2.1
			c-0.9-0.4-2.3-0.5-4.2-0.5c-0.2,0-0.3-0.2-0.3-0.6c0-0.4,0.1-0.6,0.3-0.6c1.9,0,3.4,0,4.4,0.1l5.8,0.1l5.8-0.1
			c1-0.1,2.4-0.1,4.2-0.1c0.2,0,0.3,0.2,0.3,0.6c0,0.4-0.1,0.6-0.3,0.6c-1.9,0-3.3,0.2-4.2,0.6c-0.9,0.4-1.5,1.2-1.8,2.2
			c-0.3,1-0.5,2.7-0.5,4.8v21l21.7-21.6c0-2-0.2-3.5-0.5-4.5c-0.3-1-0.9-1.6-1.8-2c-0.9-0.4-2.3-0.5-4.2-0.5c-0.2,0-0.3-0.2-0.3-0.6
			c0-0.4,0.1-0.6,0.3-0.6c1.9,0,3.4,0,4.4,0.1l5.8,0.1l5.8-0.1c1-0.1,2.4-0.1,4.2-0.1c0.2,0,0.3,0.2,0.3,0.6c0,0.4-0.1,0.6-0.3,0.6
			c-1.9,0-3.3,0.2-4.2,0.6c-0.9,0.4-1.5,1.2-1.8,2.2c-0.3,1-0.5,2.7-0.5,4.8v24c0,2.2,0.2,3.8,0.5,4.8c0.3,1,0.9,1.7,1.8,2.1
			c0.9,0.4,2.3,0.5,4.2,0.5C618.3,375.9,618.4,376.1,618.4,376.5z"/>
		<path class="st10" d="M626.9,377.2c-0.8-0.6-1.2-1.7-1.2-3c0-2.4,1.5-3.6,4.5-3.6c4,0,6.6-2,7.9-6.1c1.3-4.1,2-10.2,2-18.4
			c0-2.7-0.2-4.7-0.6-6c-0.4-1.3-1.2-2.3-2.4-2.8c-1.2-0.5-2.9-0.8-5.2-0.8c-0.2,0-0.3-0.2-0.3-0.6c0-0.4,0.1-0.6,0.3-0.6l18.7,0.2
			h21.4c0.2,0,0.3,0.2,0.3,0.6c0,0.4-0.1,0.6-0.3,0.6c-1.9,0-3.3,0.2-4.2,0.6c-0.9,0.4-1.5,1.2-1.8,2.2c-0.3,1-0.5,2.7-0.5,4.8v24
			c0,2.2,0.2,3.8,0.5,4.8c0.3,1,0.9,1.7,1.8,2.1c0.9,0.4,2.3,0.5,4.2,0.5c0.2,0,0.3,0.2,0.3,0.6c0,0.4-0.1,0.6-0.3,0.6
			c-1.9,0-3.3,0-4.3-0.1l-5.7-0.1l-5.9,0.1c-1.1,0.1-2.6,0.1-4.5,0.1c-0.1,0-0.2-0.2-0.2-0.6c0-0.4,0.1-0.6,0.2-0.6
			c1.9,0,3.4-0.2,4.3-0.5c0.9-0.4,1.6-1.1,1.9-2.1c0.3-1,0.5-2.6,0.5-4.8v-24.2c0-2.5-0.1-4.1-0.2-4.9c-0.1-0.8-0.5-1.3-1-1.5
			c-0.5-0.2-1.6-0.3-3.3-0.3h-4.3c-2.1,0-3.6,0.1-4.4,0.4c-0.9,0.3-1.4,0.9-1.7,1.7c-0.3,0.9-0.4,2.3-0.4,4.2
			c0,6.3-0.2,11.9-0.6,16.5c-0.4,4.7-1.6,8.8-3.5,12.4c-1.9,3.6-4.7,5.4-8.5,5.4C628.7,378.1,627.7,377.8,626.9,377.2z"/>
		<path class="st10" d="M719.7,363.9c0,4-1.4,7.2-4.3,9.7c-2.9,2.5-6.6,3.8-11.1,3.8l-6.1-0.2c-3.5-0.1-5.9-0.2-7.5-0.2l-5.8,0.1
			c-1.1,0.1-2.6,0.1-4.5,0.1c-0.2,0-0.3-0.2-0.3-0.6c0-0.4,0.1-0.6,0.3-0.6c1.9,0,3.4-0.2,4.3-0.5c0.9-0.4,1.5-1.1,1.8-2.1
			c0.3-1,0.5-2.6,0.5-4.8v-24.2c0-2.2-0.2-3.8-0.5-4.8c-0.3-1-0.9-1.7-1.8-2.1c-0.9-0.4-2.3-0.5-4.2-0.5c-0.2,0-0.3-0.2-0.3-0.6
			c0-0.4,0.1-0.6,0.3-0.6c1.9,0,3.4,0,4.4,0.1l5.8,0.1l6.5-0.1c1.2-0.1,2.8-0.1,4.9-0.1c0.1,0,0.2,0.2,0.2,0.6
			c0,0.4-0.1,0.6-0.2,0.6c-2.3,0-4,0.2-5.1,0.6c-1.1,0.4-1.8,1.2-2.2,2.2c-0.4,1-0.5,2.7-0.5,4.8v9.5c2.9-0.9,6.3-1.3,10.4-1.3
			C714.7,352.6,719.7,356.4,719.7,363.9z M711.6,366.2c0-3.6-0.9-6.4-2.6-8.5c-1.7-2.1-4.5-3.1-8.2-3.1c-2.4,0-4.5,0.3-6.5,1v12.8
			c0,2.7,0.5,4.6,1.6,5.7c1.1,1.1,3.2,1.7,6.3,1.7C708.5,375.8,711.6,372.6,711.6,366.2z"/>
		<path class="st10" d="M766.4,376.5c0,0.4-0.1,0.6-0.2,0.6c-1.7,0-3,0-3.9-0.1l-5.5-0.1l-5.7,0.1c-1,0.1-2.4,0.1-4.2,0.1
			c-0.2,0-0.3-0.2-0.3-0.6c0-0.4,0.1-0.6,0.3-0.6c1.8,0,3.1-0.2,3.9-0.5c0.8-0.4,1.3-1,1.6-2.1c0.3-1,0.4-2.6,0.4-4.9v-11.8
			c-2.5,0.3-4.6,1.3-6.5,3c-1.9,1.7-3.9,4.6-6,8.8c-2,3.9-3.4,6.3-4.1,7.3c-0.7,1-1.4,1.5-2.2,1.5h-10.4c-0.2,0-0.3-0.2-0.3-0.6
			c0-0.4,0.1-0.6,0.3-0.6c2.1,0.1,3.8-0.6,5-2.1c1.3-1.4,2.3-3,3.1-4.5c0.8-1.6,1.4-2.6,1.6-3c2.8-5.4,6.8-8.6,12.1-9.5
			c-4.9-0.4-8.4-1.5-10.5-3.3c-2.1-1.8-3.1-4.1-3.1-7.1c0-3.5,1.4-6.2,4.1-8.2c2.7-2,6.4-3,11-3c0.7,0,2.2,0.1,4.5,0.2
			c1.9,0.2,3.7,0.3,5.4,0.3l5.4-0.1c0.9-0.1,2.2-0.1,3.9-0.1c0.1,0,0.2,0.2,0.2,0.6c0,0.4-0.1,0.6-0.2,0.6c-1.7,0-2.9,0.2-3.7,0.6
			c-0.8,0.4-1.4,1.1-1.7,2.1c-0.3,1-0.5,2.6-0.5,4.8v24.2c0,2.1,0.2,3.7,0.5,4.7c0.4,1,1,1.8,1.8,2.2c0.8,0.4,2.1,0.6,3.7,0.6
			C766.3,375.9,766.4,376.1,766.4,376.5z M742.1,352.1c1.7,2.1,4,3.2,7.1,3.2c0.8,0,2-0.1,3.6-0.2v-10.7c0-2.3-0.2-4-0.5-5.1
			c-0.3-1.1-0.9-1.8-1.7-2.3c-0.8-0.4-2.1-0.6-3.8-0.6c-2.4,0-4.2,0.6-5.4,1.9c-1.2,1.3-1.8,3.1-1.8,5.5
			C739.6,347.2,740.4,350,742.1,352.1z"/>
		<path class="st10" d="M816.5,336.4c2.6,1.6,4.6,3.9,6.2,6.9c1.6,3,2.3,6.6,2.3,10.6c0,5.6-1.2,10.2-3.6,13.9
			c-2.4,3.7-5.4,6.4-9.1,8.2c-3.6,1.7-7.2,2.6-10.8,2.6c-2.1,0-4-0.2-5.6-0.5c-1.7-0.3-3.4-0.9-5.2-1.7v21.7c0,2.2,0.3,3.7,0.8,4.8
			c0.5,1,1.5,1.7,3,2.1c1.4,0.4,3.7,0.6,6.7,0.6c0.1,0,0.2,0.2,0.2,0.6c0,0.4-0.1,0.6-0.2,0.6c-2.6,0-4.6,0-6.1-0.1l-8.1-0.1
			l-6.5,0.1c-1.1,0.1-2.6,0.1-4.5,0.1c-0.1,0-0.2-0.2-0.2-0.6c0-0.4,0.1-0.6,0.2-0.6c2.1,0,3.7-0.2,4.7-0.6c1-0.4,1.7-1.1,2.1-2.1
			c0.4-1,0.5-2.6,0.5-4.8v-54c0-3-0.6-5-1.7-6c-1.2-1-3.4-1.5-6.7-1.5c-0.2,0-0.3-0.2-0.3-0.6c0-0.4,0.1-0.6,0.3-0.6h13.6
			c0.9,0,1.4,0.2,1.7,0.5c0.3,0.4,0.4,1.1,0.4,2.2v4.4c5.7-5.7,11.5-8.5,17.5-8.5C811.2,334,814,334.8,816.5,336.4z M813.4,371.3
			c2.3-3.3,3.4-8,3.4-14c0-5.8-1.3-10.4-3.9-13.6c-2.6-3.2-6-4.9-10-4.9c-2.4,0-4.5,0.5-6.4,1.5c-1.9,1-3.8,2.5-5.7,4.4v25.1
			c1.9,2.1,3.9,3.7,5.9,4.8c2.1,1.1,4.7,1.6,7.7,1.6C808.1,376.2,811.1,374.5,813.4,371.3z"/>
		<path class="st10" d="M877.2,375.1c0.1,0.1,0.2,0.5,0.2,1c0,0.6-0.1,1.7-0.2,3.5c-0.4,3.5-0.6,8.1-0.6,14.1c0,0.4-0.2,0.5-0.6,0.5
			c-0.4,0-0.6-0.2-0.6-0.5c0-11-4.3-16.5-12.8-16.5h-19.5c-3.8,0-6.8,1.3-8.9,3.9c-2.1,2.6-3.1,6.8-3.1,12.7c0,0.4-0.2,0.5-0.6,0.5
			c-0.4,0-0.6-0.2-0.6-0.5c0-6-0.2-10.6-0.6-14c-0.1-1.7-0.2-2.9-0.2-3.6c0-0.6,0.1-0.9,0.2-1.1c0.1-0.1,0.4-0.2,1-0.2
			c4.6,0,7.9-2.4,9.8-7.3c1.9-4.9,2.9-12,2.9-21.5c0-2.7-0.2-4.7-0.6-6c-0.4-1.3-1.2-2.3-2.4-2.8c-1.2-0.5-2.9-0.8-5.2-0.8
			c-0.2,0-0.3-0.2-0.3-0.6c0-0.4,0.1-0.6,0.3-0.6l18.7,0.2h22.9c0.1,0,0.2,0.2,0.2,0.6c0,0.4-0.1,0.6-0.2,0.6
			c-2.1,0-3.6,0.2-4.7,0.6c-1,0.4-1.7,1.2-2.1,2.2c-0.4,1-0.5,2.7-0.5,4.8v24c0,0.4,0,1.5,0,3.2c0,1.7,0.5,2.7,1.5,2.9
			c1,0.3,2.9,0.4,5.7,0.4C876.7,374.9,877.1,374.9,877.2,375.1z M861.6,344.2c0-2.5-0.1-4.1-0.2-4.8c-0.1-0.8-0.5-1.2-1.1-1.4
			c-0.6-0.2-1.9-0.3-3.7-0.3h-4.5c-2.1,0-3.5,0.1-4.3,0.4c-0.8,0.3-1.3,0.8-1.5,1.6c-0.2,0.8-0.3,2.2-0.3,4.2
			c0,8.3-0.6,14.9-1.7,19.8c-1.1,4.9-3.1,8.6-6,11h13.5c3.5,0,5.8-0.1,7-0.3c1.2-0.2,2-0.7,2.4-1.5c0.4-0.8,0.6-2.3,0.6-4.5V344.2z"
			/>
		<path class="st10" d="M928,371.3c0.3,0,0.5,0.2,0.6,0.5s0,0.6-0.3,0.7l-11.1,5.3c-0.3,0.1-0.6,0.2-1,0.2c-1,0-1.9-0.6-2.8-1.8
			c-0.8-1.2-1.4-2.8-1.7-4.8l-6.1,3.2c-4.1,2.2-7.5,3.2-10.3,3.2c-2.3,0-4.1-0.6-5.3-1.8c-1.2-1.2-1.8-2.8-1.8-4.8
			c0-2,0.8-3.6,2.3-4.8c1.5-1.2,4.4-2.5,8.6-3.9l12.3-4.2v-8.9c0-4.6-0.6-7.9-1.7-9.9c-1.1-2-2.7-3-4.8-3c-2.2,0-3.9,0.8-5.1,2.4
			c-1.3,1.6-2,3.7-2.3,6.3c-0.4,3.2-1.9,4.8-4.8,4.8c-1.3,0-2.3-0.3-3-1c-0.7-0.6-1.1-1.5-1.1-2.7c0-1.7,1.1-3.6,3.4-5.5
			c2.3-1.9,5-3.5,8.2-4.8c3.2-1.3,6-1.9,8.5-1.9c3,0,5.5,1,7.4,3c1.9,2,2.8,5,2.8,8.9v19.1c0,4.8,1.4,7.1,4.2,7.1
			c0.9,0,2.5-0.4,4.5-1.3H928z M911.6,369.8v-1.2V360l-9.4,3.6c-1.7,0.6-3,1.3-3.7,2.1c-0.8,0.8-1.1,1.9-1.1,3.1
			c0,1.5,0.4,2.7,1.3,3.6c0.9,0.9,2,1.3,3.4,1.3c1.6,0,3.2-0.4,4.8-1.3L911.6,369.8z"/>
	</g>
	<g>
		<g>
			<path class="st2" d="M459.3,438.8c3.2-2.9,3.4-7.9,0.5-11.1L116,63.4l332.2,374.8C451.2,441.5,456.1,441.7,459.3,438.8
				L459.3,438.8z"/>
			<path class="st2" d="M118.6,438.8c-3.2-2.9-3.4-7.9-0.5-11.1L461.9,63.4L129.7,438.3C126.7,441.5,121.8,441.7,118.6,438.8
				L118.6,438.8z"/>
			<path class="st23" d="M381.1,131.4c-24.6-14.2-37.9-53-37.9-53l-55.9-21.8l-55.9,21.8c0,0-13.3,38.8-37.9,53
				s-57.7,22.7-57.7,22.7s12.3,120.2,30.3,181.6c18,61.4,121.2,121.3,121.2,121.3s103.2-59.9,121.2-121.3
				c18-61.4,30.3-181.6,30.3-181.6S405.7,145.6,381.1,131.4z"/>
			<path class="st8" d="M234.8,88.9c0,0-12.5,36.5-35.6,49.9s-54.3,21.4-54.3,21.4s11.6,113.1,28.5,170.8
				c16.9,57.7,114,114.1,114,114.1V68.5L234.8,88.9z"/>
			<path class="st24" d="M375.5,138.8c-23.2-13.4-35.6-49.9-35.6-49.9l-52.5-20.5v376.7c0,0,97.1-56.4,114-114.1
				c16.9-57.7,28.5-170.8,28.5-170.8S398.7,152.2,375.5,138.8z"/>
			<path class="st25" d="M295.8,261.1c4.4,0,6.6-0.9,6.6-2.7c0-0.7-0.8-3.2-2.4-7.3l-17.2-44.4v54.4H295.8z"/>
			<path class="st25" d="M262.1,250.3c-1.6,3.5-2.4,6.1-2.4,7.5c0,2.2,2.7,3.3,8.2,3.3h14.9v-54.4l-1.1-3L262.1,250.3z"/>
		</g>
		<g>
			<path class="st6" d="M303.3,192.8c5.4,0.2,10.3,0.3,14.6,0.3c4.2,0,9.9-0.1,17.1-0.3l0.7,2.5l-12.4,2.4c-1.3,0.5-2,1.4-2.1,2.9
				c-0.1,3.8-0.1,9.5,1.4,15.2v69.7c0,6.8,0.1,12.5,0.2,17.1c0.1,1.3,0.9,2.2,2.4,2.7l10.3,3.2l0.2,3.7c-7.6-0.2-14.8-0.3-21.7-0.3
				c-6.8,0-13.5,0.1-20.1,0.3l-0.3-3.7l9.9-3c1.4-0.4,2.1-1.4,2.1-3c0.1-4.5,0.2-10.2,0.2-16.9v-74.4l-42.6,100.8l-6.3,0.7
				l-42.9-101.5v74.4c0,6.8,0.1,12.4,0.2,16.9c0.1,1.6,0.8,2.6,2.2,3l9.6,3l0.2,3.7c-6.8-0.2-12.5-0.3-17.1-0.3
				c-4.5,0-10.4,0.1-17.8,0.3l-0.3-3.7l10.6-3.2c1.5-0.5,2.3-1.3,2.3-2.7c0.1-4.6,0.2-10.3,0.2-17.1v-69.7c0-5.7-0.1-10.5-0.2-14.3
				c-0.1-1.5-0.7-2.5-2.1-2.9l-10.7-3.4l-0.2-3.7c7.4,0.2,13.2,0.3,17.5,0.3c4.9,0,10.1-0.1,15.4-0.3l39.9,94.3L303.3,192.8z"/>
			<path class="st6" d="M362.3,199.6h-39.4v44.9c5.6-0.5,11-0.8,16.2-0.8c15.2,0,26.4,2.6,33.6,7.8c7.2,5.2,10.7,12.8,10.7,23
				c0,12.2-4.2,21.6-12.5,28.1c-8.3,6.6-19.9,9.8-34.8,9.8c-2.9,0-6.2-0.1-9.8-0.3c-3.6-0.2-7.5-0.3-11.8-0.3
				c-6.9,0-14,0.1-21.3,0.3l-0.3-3.7l10.6-3.2c1.5-0.5,2.3-1.3,2.3-2.7c0.1-2.3,0.1-4.9,0.1-7.7c0-2.8,0-6,0-9.4v-69.7
				c0-2.9,0-5.6,0-7.9c0-2.3-0.1-4.5-0.1-6.4c-0.1-1.5-0.7-2.5-2.1-2.9l-10.7-3.4l-0.2-3.7c7.4,0.2,14.5,0.3,21.3,0.3h21.9
				c7.1,0,13.9,0,20.5-0.1c6.5-0.1,13.2-0.1,20-0.3l0.5,0.7l-5.7,28.9l-3.4,0.5L362.3,199.6z M322.9,304.7c4.2,0.7,8.4,1,12.5,1
				c9.6,0,16.9-2.3,21.9-7c5-4.6,7.6-11.6,7.6-21c0-9.1-2.4-15.9-7.1-20.3c-4.8-4.4-12.3-6.7-22.6-6.7c-3.5,0-7.6,0.3-12.3,0.8
				V304.7z"/>
		</g>
	</g>
</g>
<g id="Layer_4">
</g>
<g id="Layer_2">
</g>
</svg>
